<?xml version="1.0" encoding="UTF-8" standalone="no"?>
<svg
   aria-hidden="true"
   focusable="false"
   data-prefix="fas"
   data-icon="volume-high"
   class="svg-inline--fa fa-volume-high"
   role="img"
   viewBox="0 0 455.99942 455.99942"
   version="1.1"
   id="svg1344"
   sodipodi:docname="volume-off.svg"
   width="455.99942"
   height="455.99942"
   inkscape:version="1.1.1 (3bf5ae0d25, 2021-09-20, custom)"
   xmlns:inkscape="http://www.inkscape.org/namespaces/inkscape"
   xmlns:sodipodi="http://sodipodi.sourceforge.net/DTD/sodipodi-0.dtd"
   xmlns="http://www.w3.org/2000/svg"
   xmlns:svg="http://www.w3.org/2000/svg">
  <defs
     id="defs1348" />
  <sodipodi:namedview
     id="namedview1346"
     pagecolor="#ffffff"
     bordercolor="#666666"
     borderopacity="1.0"
     inkscape:pageshadow="2"
     inkscape:pageopacity="0.0"
     inkscape:pagecheckerboard="0"
     showgrid="false"
     inkscape:zoom="0.6875"
     inkscape:cx="60.363636"
     inkscape:cy="306.18182"
     inkscape:window-width="1918"
     inkscape:window-height="1048"
     inkscape:window-x="0"
     inkscape:window-y="0"
     inkscape:window-maximized="1"
     inkscape:current-layer="svg1344"
     fit-margin-top="0"
     fit-margin-left="0"
     fit-margin-right="0"
     fit-margin-bottom="0" />
  <path
     style="fill:#000000;stroke:#000000;stroke-width:4.53333;stroke-miterlimit:4;stroke-dasharray:none;stroke-opacity:1;fill-opacity:1"
     d="m 212.01971,40.133445 c -9.775,-4.40385 -21.2585,-2.6146 -29.2655,4.4965 L 68.02971,146.48545 h -71.23 c -22.5335,0 -40.8,18.258 -40.8,40.766 v 81.532 c 0,22.508 18.2665,40.766 40.8,40.766 h 71.264 l 114.665,101.83 c 5.066,4.471 11.526,6.851 18.071,6.851 3.7723,0 7.61515,-0.79169 11.186,-2.40975 9.809,-4.39025 16.014,-14.08025 16.014,-24.70525 V 64.902445 c 0,-10.6845 -6.205,-20.3915 -15.98,-24.769 z"
     id="path1631" />
  <path
     id="path1909-7"
     style="fill:#000000;fill-opacity:1;fill-rule:nonzero;stroke:#000000;stroke-width:0.804735px;stroke-linecap:butt;stroke-linejoin:miter;stroke-opacity:1"
     d="m 289.69978,135.81899 152.0743,152.0743 c 0,0 12.0725,10.90856 -3.12498,26.10604 -15.19748,15.19748 -26.84217,3.95807 -26.84217,3.95807 L 259.63289,165.78336 c 0,0 -8.98851,-8.91002 6.26943,-24.16796 15.25796,-15.25796 23.79746,-5.79641 23.79746,-5.79641 z M 259.68709,290.3833 411.76139,138.309 c 0,0 10.90855,-12.07251 26.10603,3.12497 15.19749,15.19749 3.95808,26.84217 3.95808,26.84217 L 289.65145,320.45019 c 0,0 -8.91001,8.98851 -24.16795,-6.26943 -15.25796,-15.25796 -5.79641,-23.79746 -5.79641,-23.79746 z" />
</svg>
