<?xml version="1.0" encoding="UTF-8" standalone="no"?>
<svg
   aria-hidden="true"
   focusable="false"
   data-prefix="fas"
   data-icon="volume-high"
   class="svg-inline--fa fa-volume-high"
   role="img"
   viewBox="0 0 455.99942 455.99942"
   version="1.1"
   id="svg1344"
   sodipodi:docname="volume-none.svg"
   width="455.99942"
   height="455.99942"
   inkscape:version="1.1.1 (3bf5ae0d25, 2021-09-20, custom)"
   xmlns:inkscape="http://www.inkscape.org/namespaces/inkscape"
   xmlns:sodipodi="http://sodipodi.sourceforge.net/DTD/sodipodi-0.dtd"
   xmlns="http://www.w3.org/2000/svg"
   xmlns:svg="http://www.w3.org/2000/svg">
  <defs
     id="defs1348" />
  <sodipodi:namedview
     id="namedview1346"
     pagecolor="#ffffff"
     bordercolor="#666666"
     borderopacity="1.0"
     inkscape:pageshadow="2"
     inkscape:pageopacity="0.0"
     inkscape:pagecheckerboard="0"
     showgrid="false"
     inkscape:zoom="1.375"
     inkscape:cx="126.90909"
     inkscape:cy="227.27273"
     inkscape:window-width="1918"
     inkscape:window-height="1048"
     inkscape:window-x="0"
     inkscape:window-y="0"
     inkscape:window-maximized="1"
     inkscape:current-layer="svg1344"
     fit-margin-top="0"
     fit-margin-left="0"
     fit-margin-right="0"
     fit-margin-bottom="0" />
  <path
     style="fill:#000000;stroke:#000000;stroke-width:4.53333;stroke-miterlimit:4;stroke-dasharray:none;stroke-opacity:1;fill-opacity:1"
     d="m 212.01971,40.133445 c -9.775,-4.40385 -21.2585,-2.6146 -29.2655,4.4965 L 68.02971,146.48545 h -71.23 c -22.5335,0 -40.8,18.258 -40.8,40.766 v 81.532 c 0,22.508 18.2665,40.766 40.8,40.766 h 71.264 l 114.665,101.83 c 5.066,4.471 11.526,6.851 18.071,6.851 3.7723,0 7.61515,-0.79169 11.186,-2.40975 9.809,-4.39025 16.014,-14.08025 16.014,-24.70525 V 64.902445 c 0,-10.6845 -6.205,-20.3915 -15.98,-24.769 z"
     id="path1631" />
  <path
     style="fill:none;stroke:#000000;stroke-width:4.53333;stroke-miterlimit:4;stroke-dasharray:none;stroke-opacity:1;fill-opacity:1"
     d="m 410.23971,38.790445 c -8.687,-7.0839 -21.539,-5.83695 -28.713,2.839 -7.1451,8.704 -5.8701,21.5475 2.8424,28.679 47.5456,38.946995 74.8306,96.407005 74.8306,156.927005 0,60.52 -27.2765,118.745 -74.851,157.675 -8.7125,7.1366 -9.9875,19.975 -2.8424,28.679 3.9984,5.661 9.8634,8.211 15.8134,8.211 4.56875,0 9.1375,-1.51215 12.937,-4.61635 57.018,-46.72365 89.743,-115.65865 89.743,-189.94865 0,-74.29 -32.725,-141.746005 -89.76,-188.445005 z"
     id="path1629" />
  <path
     style="fill:none;stroke:#000000;stroke-width:4.53333;stroke-miterlimit:4;stroke-dasharray:none;stroke-opacity:1;fill-opacity:1"
     d="m 358.13471,102.37044 c -8.687,-7.083895 -21.539,-5.863295 -28.713,2.839 -7.1451,8.704 -5.8701,21.54751 2.8424,28.67901 28.8456,22.797 45.3356,57.817 45.3356,93.347 0,35.53 -16.524,69.785 -45.3135,94.095 -8.7125,7.1366 -9.9875,19.975 -2.8424,28.679 4.0375,4.90875 9.877,7.45535 15.776,7.45535 4.56875,0 9.1375,-1.51215 12.937,-4.61635 38.3129,-30.583 60.2429,-76.398 60.2429,-125.613 0,-49.215 -21.93,-93.585 -60.265,-124.86501 z"
     id="path1627" />
  <path
     style="fill:none;stroke:#000000;stroke-width:4.53333;stroke-miterlimit:4;stroke-dasharray:none;stroke-opacity:1;fill-opacity:1"
     d="m 306.70971,165.10045 c -8.738,-7.0839 -21.5985,-5.83695 -28.6875,2.8917 -7.1451,8.704 -5.8701,21.5475 2.86875,28.679 9.58375,7.8693 15.10875,19.2593 15.10875,30.5643 0,12.0445 -5.525,23.4515 -15.1385,31.3055 -8.738,7.1366 -10.013,19.975 -2.86875,28.679 4.01115,4.9351 9.877,7.4817 15.776,7.4817 4.5424,0 9.1375,-1.51215 12.9115,-4.58915 19.15475,-14.93705 30.11975,-37.80205 30.11975,-62.87705 0,-25.075 -10.965,-46.495 -30.09,-62.135 z"
     id="path1342" />
</svg>
